<svg xmlns="http://www.w3.org/2000/svg" xmlns:xlink="http://www.w3.org/1999/xlink" width="500" zoomAndPan="magnify" viewBox="0 0 375 374.999991" height="500" preserveAspectRatio="xMidYMid meet" version="1.0"><defs><g/><clipPath id="22b29242ed"><path d="M 49.703125 48.578125 L 324.953125 48.578125 L 324.953125 323.828125 L 49.703125 323.828125 Z M 49.703125 48.578125 " clip-rule="nonzero"/></clipPath></defs><rect x="-37.5" width="450" fill="#ffffff" y="-37.499999" height="449.999989" fill-opacity="1"/><rect x="-37.5" width="450" fill="#ffffff" y="-37.499999" height="449.999989" fill-opacity="1"/><rect x="-37.5" width="450" fill="#f7e9e0" y="-37.499999" height="449.999989" fill-opacity="1"/><g clip-path="url(#22b29242ed)"><path fill="#754138" d="M 284.632812 88.882812 C 258.640625 62.890625 224.082031 48.578125 187.320312 48.578125 C 150.5625 48.578125 116 62.890625 90.007812 88.882812 C 64.015625 114.875 49.703125 149.4375 49.703125 186.195312 C 49.703125 222.957031 64.015625 257.515625 90.007812 283.507812 C 116 309.5 150.5625 323.816406 187.320312 323.816406 C 224.082031 323.816406 258.640625 309.5 284.632812 283.507812 C 310.625 257.515625 324.941406 222.957031 324.941406 186.195312 C 324.941406 149.4375 310.625 114.875 284.632812 88.882812 Z M 187.320312 319.1875 C 113.992188 319.1875 54.332031 259.523438 54.332031 186.195312 C 54.332031 112.867188 113.992188 53.207031 187.320312 53.207031 C 260.648438 53.207031 320.3125 112.867188 320.3125 186.195312 C 320.3125 259.523438 260.648438 319.1875 187.320312 319.1875 Z M 187.320312 319.1875 " fill-opacity="1" fill-rule="nonzero"/></g><path fill="#754138" d="M 263.71875 143.316406 C 263.339844 143.535156 262.9375 143.644531 262.53125 143.644531 C 261.742188 143.644531 260.972656 143.238281 260.539062 142.515625 C 245.210938 116.878906 217.15625 100.953125 187.320312 100.953125 C 157.488281 100.953125 129.429688 116.878906 114.101562 142.515625 C 113.449219 143.609375 112.027344 143.96875 110.925781 143.316406 C 109.832031 142.65625 109.472656 141.238281 110.128906 140.136719 C 117.96875 127.027344 129.09375 116.050781 142.304688 108.390625 C 155.925781 100.496094 171.492188 96.324219 187.320312 96.324219 C 203.152344 96.324219 218.71875 100.496094 232.339844 108.390625 C 245.546875 116.050781 256.675781 127.03125 264.515625 140.136719 C 265.167969 141.238281 264.808594 142.660156 263.71875 143.316406 Z M 263.71875 143.316406 " fill-opacity="1" fill-rule="nonzero"/><path fill="#754138" d="M 264.515625 239.09375 C 256.675781 252.207031 245.546875 263.183594 232.339844 270.84375 C 218.71875 278.734375 203.152344 282.914062 187.320312 282.914062 C 171.492188 282.914062 155.925781 278.734375 142.304688 270.84375 C 129.09375 263.183594 117.96875 252.207031 110.128906 239.09375 C 109.472656 237.996094 109.832031 236.578125 110.925781 235.917969 C 112.027344 235.261719 113.449219 235.621094 114.101562 236.714844 C 129.429688 262.355469 157.488281 278.285156 187.320312 278.285156 C 217.15625 278.285156 245.210938 262.355469 260.539062 236.714844 C 261.195312 235.621094 262.617188 235.261719 263.71875 235.917969 C 264.808594 236.578125 265.167969 237.996094 264.515625 239.09375 Z M 264.515625 239.09375 " fill-opacity="1" fill-rule="nonzero"/><path fill="#754138" d="M 225.71875 180.671875 L 225.71875 214.628906 C 225.71875 218.410156 225.191406 222.058594 224.207031 225.527344 C 223.761719 227.109375 223.21875 228.65625 222.582031 230.15625 C 216.507812 244.515625 202.273438 254.625 185.722656 254.625 C 163.671875 254.625 145.730469 236.679688 145.730469 214.628906 L 145.730469 180.671875 C 145.730469 180.589844 145.734375 180.503906 145.742188 180.421875 C 145.769531 180.171875 145.839844 179.925781 145.949219 179.6875 C 145.957031 179.679688 145.957031 179.667969 145.960938 179.664062 C 146.007812 179.566406 146.058594 179.472656 146.117188 179.386719 C 146.117188 179.386719 146.125 179.378906 146.125 179.375 C 146.183594 179.289062 146.246094 179.207031 146.316406 179.132812 C 146.320312 179.125 146.328125 179.121094 146.328125 179.121094 C 146.402344 179.039062 146.476562 178.964844 146.558594 178.898438 L 146.574219 178.882812 C 146.644531 178.824219 146.71875 178.765625 146.800781 178.722656 C 146.816406 178.710938 146.828125 178.703125 146.839844 178.699219 C 146.929688 178.640625 147.015625 178.59375 147.101562 178.558594 C 147.199219 178.511719 147.304688 178.476562 147.410156 178.449219 C 147.5 178.417969 147.597656 178.398438 147.699219 178.386719 C 147.714844 178.378906 147.730469 178.378906 147.742188 178.378906 C 147.84375 178.363281 147.945312 178.355469 148.042969 178.355469 C 148.304688 178.355469 148.566406 178.398438 148.820312 178.488281 C 148.882812 178.511719 148.949219 178.535156 149.003906 178.570312 C 149.011719 178.570312 149.023438 178.570312 149.027344 178.574219 C 149.046875 178.582031 149.058594 178.59375 149.074219 178.597656 C 149.839844 178.976562 150.359375 179.761719 150.359375 180.671875 L 150.359375 214.628906 C 150.359375 234.128906 166.226562 249.996094 185.722656 249.996094 C 205.222656 249.996094 221.089844 234.128906 221.089844 214.628906 L 221.089844 180.671875 C 221.089844 179.390625 222.125 178.355469 223.40625 178.355469 C 224.039062 178.355469 224.621094 178.617188 225.042969 179.035156 C 225.101562 179.089844 225.152344 179.148438 225.199219 179.207031 C 225.25 179.269531 225.296875 179.335938 225.335938 179.398438 C 225.382812 179.460938 225.417969 179.523438 225.453125 179.59375 C 225.488281 179.652344 225.511719 179.710938 225.535156 179.769531 C 225.570312 179.835938 225.589844 179.90625 225.613281 179.980469 C 225.636719 180.050781 225.65625 180.125 225.671875 180.203125 C 225.691406 180.28125 225.703125 180.359375 225.707031 180.433594 C 225.714844 180.515625 225.71875 180.59375 225.71875 180.671875 Z M 225.71875 180.671875 " fill-opacity="1" fill-rule="nonzero"/><path fill="#754138" d="M 225.707031 180.433594 C 225.402344 170.320312 204.964844 164.867188 185.722656 164.867188 C 166.492188 164.867188 146.066406 170.320312 145.742188 180.421875 C 145.734375 180.503906 145.730469 180.589844 145.730469 180.671875 C 145.730469 183.632812 147.449219 186.207031 150.359375 188.359375 C 157.527344 193.671875 171.9375 196.472656 185.722656 196.472656 C 199.511719 196.472656 213.921875 193.671875 221.089844 188.359375 C 224 186.207031 225.71875 183.632812 225.71875 180.671875 C 225.71875 180.59375 225.714844 180.515625 225.707031 180.433594 Z M 185.722656 191.84375 C 171.097656 191.84375 160.238281 188.945312 154.636719 185.628906 C 151.847656 183.976562 150.359375 182.222656 150.359375 180.671875 C 150.359375 180.226562 150.480469 179.769531 150.722656 179.300781 C 152.992188 174.832031 165.890625 169.496094 185.722656 169.496094 C 193.0625 169.496094 199.449219 170.226562 204.703125 171.371094 C 215.136719 173.652344 221.089844 177.570312 221.089844 180.671875 C 221.089844 180.960938 221.039062 181.261719 220.933594 181.566406 C 219.378906 186.128906 206.265625 191.84375 185.722656 191.84375 Z M 185.722656 191.84375 " fill-opacity="1" fill-rule="nonzero"/><path fill="#754138" d="M 256.050781 211.003906 C 256.050781 221.5625 247.457031 230.15625 236.890625 230.15625 L 221.019531 230.15625 C 219.742188 230.15625 218.707031 229.117188 218.707031 227.839844 C 218.707031 226.5625 219.742188 225.527344 221.019531 225.527344 L 236.890625 225.527344 C 244.90625 225.527344 251.421875 219.011719 251.421875 211.003906 C 251.421875 202.992188 244.90625 196.472656 236.890625 196.472656 L 223.40625 196.472656 C 222.78125 196.472656 222.210938 196.222656 221.796875 195.820312 C 221.363281 195.402344 221.089844 194.8125 221.089844 194.160156 C 221.089844 192.886719 222.125 191.84375 223.40625 191.84375 L 236.890625 191.84375 C 247.457031 191.84375 256.050781 200.4375 256.050781 211.003906 Z M 256.050781 211.003906 " fill-opacity="1" fill-rule="nonzero"/><path fill="#754138" d="M 225.71875 180.671875 C 225.71875 181.265625 225.492188 181.855469 225.042969 182.308594 C 224.140625 183.210938 222.667969 183.210938 221.765625 182.308594 C 221.5625 182.105469 221.339844 181.902344 221.089844 181.695312 C 221.042969 181.648438 220.984375 181.609375 220.933594 181.566406 C 218.121094 179.257812 212.769531 176.765625 206.507812 176.128906 C 201.140625 175.578125 193.460938 176.210938 187.363281 182.308594 C 182.820312 186.84375 176.691406 188.34375 170.582031 188.34375 C 164.789062 188.34375 159.015625 187 154.636719 185.628906 C 152.984375 185.113281 151.539062 184.597656 150.359375 184.140625 C 148.472656 183.425781 147.28125 182.871094 147.0625 182.765625 C 146.222656 182.371094 145.730469 181.539062 145.730469 180.671875 C 145.730469 180.589844 145.734375 180.503906 145.742188 180.421875 C 145.769531 180.171875 145.839844 179.925781 145.949219 179.6875 C 145.957031 179.679688 145.957031 179.667969 145.960938 179.664062 C 146.007812 179.566406 146.058594 179.472656 146.117188 179.386719 C 146.117188 179.386719 146.125 179.378906 146.125 179.375 C 146.183594 179.289062 146.246094 179.207031 146.316406 179.132812 C 146.320312 179.125 146.328125 179.121094 146.328125 179.121094 C 146.402344 179.039062 146.476562 178.964844 146.558594 178.898438 L 146.574219 178.882812 C 146.644531 178.824219 146.71875 178.765625 146.800781 178.722656 C 146.816406 178.710938 146.828125 178.703125 146.839844 178.699219 C 146.929688 178.640625 147.015625 178.59375 147.101562 178.558594 C 147.199219 178.511719 147.304688 178.476562 147.410156 178.449219 C 147.5 178.417969 147.597656 178.398438 147.699219 178.386719 C 147.714844 178.378906 147.730469 178.378906 147.742188 178.378906 C 147.84375 178.363281 147.945312 178.355469 148.042969 178.355469 C 148.304688 178.355469 148.566406 178.398438 148.820312 178.488281 C 148.882812 178.511719 148.949219 178.535156 149.003906 178.570312 C 149.011719 178.570312 149.023438 178.570312 149.027344 178.574219 C 149.046875 178.582031 149.058594 178.59375 149.074219 178.597656 C 149.242188 178.675781 149.820312 178.933594 150.722656 179.300781 C 154.21875 180.710938 162.589844 183.714844 170.628906 183.714844 C 175.675781 183.714844 180.585938 182.535156 184.085938 179.035156 C 189.359375 173.769531 196.613281 171.082031 204.703125 171.371094 C 205.457031 171.394531 206.214844 171.449219 206.976562 171.523438 C 214.113281 172.246094 221.207031 175.195312 225.042969 179.035156 C 225.101562 179.089844 225.152344 179.148438 225.199219 179.207031 C 225.25 179.269531 225.296875 179.335938 225.335938 179.398438 C 225.382812 179.460938 225.417969 179.523438 225.453125 179.59375 C 225.488281 179.652344 225.511719 179.710938 225.535156 179.769531 C 225.570312 179.835938 225.589844 179.90625 225.613281 179.980469 C 225.636719 180.050781 225.65625 180.125 225.671875 180.203125 C 225.691406 180.28125 225.703125 180.359375 225.707031 180.433594 C 225.714844 180.515625 225.71875 180.59375 225.71875 180.671875 Z M 225.71875 180.671875 " fill-opacity="1" fill-rule="nonzero"/><path fill="#754138" d="M 187.621094 207.234375 C 181.761719 207.234375 176.386719 206.75 171.796875 206.089844 C 157.367188 204.019531 147.566406 199.945312 147.152344 199.769531 C 145.972656 199.273438 145.421875 197.917969 145.914062 196.738281 C 146.40625 195.558594 147.765625 195.007812 148.941406 195.5 C 149.324219 195.664062 187.554688 211.324219 222.449219 195.523438 C 223.613281 194.996094 224.984375 195.511719 225.511719 196.675781 C 226.035156 197.839844 225.523438 199.210938 224.359375 199.734375 C 211.734375 205.464844 198.796875 207.234375 187.621094 207.234375 Z M 187.621094 207.234375 " fill-opacity="1" fill-rule="nonzero"/><path fill="#754138" d="M 192.453125 155.558594 C 192.082031 155.785156 191.671875 155.886719 191.269531 155.886719 C 190.480469 155.886719 189.71875 155.488281 189.28125 154.773438 C 188.625 153.679688 188.976562 152.253906 190.070312 151.59375 C 195.09375 148.570312 202.058594 142.726562 201.828125 139.199219 C 201.675781 136.863281 199.589844 135.277344 197.605469 134.914062 C 196.457031 134.707031 193.621094 134.605469 191.984375 138.210938 C 191.457031 139.375 190.085938 139.890625 188.925781 139.355469 C 187.753906 138.832031 187.242188 137.460938 187.773438 136.296875 C 190.207031 130.925781 194.878906 129.710938 198.4375 130.359375 C 202.878906 131.167969 206.171875 134.683594 206.449219 138.898438 C 206.9375 146.449219 194.878906 154.101562 192.453125 155.558594 Z M 192.453125 155.558594 " fill-opacity="1" fill-rule="nonzero"/><path fill="#754138" d="M 186.75 130.1875 C 185.503906 130.492188 184.253906 129.742188 183.941406 128.496094 C 182.460938 122.535156 178.863281 120.527344 175.992188 120.644531 C 173.347656 120.742188 170.378906 122.625 169.707031 126.605469 C 168.5 133.726562 179.082031 146.53125 183.257812 150.867188 C 184.152344 151.785156 184.121094 153.25 183.203125 154.140625 C 182.757812 154.574219 182.171875 154.789062 181.597656 154.789062 C 180.992188 154.789062 180.382812 154.550781 179.933594 154.082031 C 178.226562 152.316406 163.332031 136.523438 165.144531 125.835938 C 166.085938 120.257812 170.476562 116.21875 175.820312 116.015625 C 180.285156 115.84375 186.28125 118.71875 188.4375 127.378906 C 188.746094 128.625 187.988281 129.878906 186.75 130.1875 Z M 186.75 130.1875 " fill-opacity="1" fill-rule="nonzero"/><path fill="#754138" d="M 285.304688 178.511719 C 283.875 177.328125 282.261719 176.539062 280.578125 176.1875 C 279.277344 175.910156 277.929688 175.886719 276.585938 176.132812 C 275.308594 176.367188 274.085938 176.769531 272.945312 177.328125 C 268.253906 179.601562 264.988281 184.34375 264.921875 189.535156 L 264.921875 189.550781 C 264.886719 194.75 268.132812 199.550781 272.894531 201.882812 C 274.035156 202.449219 275.265625 202.867188 276.554688 203.117188 C 277.238281 203.25 277.921875 203.3125 278.59375 203.3125 C 279.289062 203.3125 279.96875 203.242188 280.640625 203.105469 C 281.273438 202.980469 281.898438 202.792969 282.5 202.546875 C 282.992188 202.347656 283.476562 202.109375 283.945312 201.832031 C 284.464844 201.519531 284.96875 201.164062 285.457031 200.765625 C 288.527344 198.207031 290.277344 194.164062 290.242188 189.667969 C 290.210938 185.144531 288.414062 181.074219 285.304688 178.511719 Z M 284.089844 195.398438 C 283.644531 196.089844 283.113281 196.699219 282.5 197.207031 C 281.722656 197.851562 280.855469 198.289062 279.945312 198.515625 C 279.132812 198.710938 278.28125 198.730469 277.4375 198.566406 C 272.988281 197.71875 269.527344 193.769531 269.550781 189.59375 C 269.566406 188.1875 269.972656 186.808594 270.660156 185.570312 C 271.441406 184.164062 272.59375 182.9375 273.980469 182.054688 C 275.015625 181.386719 276.175781 180.914062 277.414062 180.6875 C 279.136719 180.371094 280.890625 180.867188 282.355469 182.078125 C 284.402344 183.773438 285.589844 186.550781 285.613281 189.703125 C 285.628906 191.855469 285.085938 193.835938 284.089844 195.398438 Z M 284.089844 195.398438 " fill-opacity="1" fill-rule="nonzero"/><path fill="#754138" d="M 284.089844 195.398438 C 283.414062 193 281.945312 190.246094 279.03125 187.828125 C 275.988281 185.371094 274.59375 183.28125 273.980469 182.054688 C 273.6875 181.46875 273.566406 181.074219 273.53125 180.9375 C 273.53125 180.960938 273.53125 180.976562 273.535156 180.996094 C 273.53125 180.972656 273.53125 180.953125 273.523438 180.929688 L 273.523438 180.914062 C 273.519531 180.90625 273.519531 180.902344 273.519531 180.894531 C 273.34375 179.734375 272.296875 178.871094 271.113281 178.933594 C 269.832031 179 268.855469 180.085938 268.917969 181.363281 C 268.925781 181.394531 269.035156 183.042969 270.660156 185.570312 C 271.707031 187.214844 273.398438 189.222656 276.097656 191.402344 C 279.277344 194.054688 279.878906 196.96875 279.945312 198.515625 C 279.96875 199.066406 279.929688 199.441406 279.914062 199.574219 C 279.835938 199.859375 279.8125 200.160156 279.855469 200.464844 L 280.09375 202.203125 L 282.5 202.546875 C 282.992188 202.347656 283.476562 202.109375 283.945312 201.832031 L 284.269531 201.097656 C 284.605469 200.339844 284.855469 198.097656 284.089844 195.398438 Z M 279.9375 199.492188 C 280.046875 199.082031 280.300781 198.683594 280.664062 198.382812 C 280.324219 198.671875 280.070312 199.058594 279.9375 199.492188 Z M 279.9375 199.492188 " fill-opacity="1" fill-rule="nonzero"/><path fill="#754138" d="M 283.007812 162.449219 L 283.003906 162.445312 C 281.09375 154.464844 273.644531 151.160156 271.824219 150.6875 C 271.816406 150.6875 271.816406 150.6875 271.8125 150.679688 C 271.753906 150.667969 271.703125 150.65625 271.65625 150.644531 L 271.636719 150.644531 C 271.574219 150.628906 271.523438 150.617188 271.464844 150.613281 C 270.914062 150.507812 270.636719 150.535156 270.566406 150.546875 C 270.554688 150.546875 270.550781 150.546875 270.550781 150.546875 C 270.058594 150.722656 269.695312 151.234375 269.519531 151.527344 C 269.449219 151.640625 269.417969 151.722656 269.417969 151.722656 C 268.941406 152.628906 268.359375 153.824219 268.011719 154.8125 C 267.964844 154.933594 267.921875 155.054688 267.890625 155.171875 C 266.238281 160.183594 265.777344 164.386719 266.511719 167.726562 C 267.285156 171.066406 269.445312 174.289062 272.945312 177.328125 C 273.476562 177.800781 274.046875 178.265625 274.640625 178.722656 L 274.660156 179.078125 L 277.296875 180.226562 L 278.402344 179.304688 C 278.664062 179.085938 279.589844 177.953125 280.578125 176.1875 C 282.34375 173.039062 284.304688 167.902344 283.007812 162.449219 Z M 271.03125 166.707031 C 270.621094 164.855469 270.585938 161.546875 272.484375 156.023438 C 273.484375 156.589844 274.746094 157.457031 275.878906 158.683594 C 277.011719 159.914062 278.015625 161.507812 278.5 163.527344 C 279.519531 167.800781 277.691406 171.945312 276.390625 174.191406 C 272.707031 171.105469 271.429688 168.449219 271.03125 166.707031 Z M 271.03125 166.707031 " fill-opacity="1" fill-rule="nonzero"/><path fill="#754138" d="M 280.640625 203.105469 C 280.457031 202.78125 280.269531 202.480469 280.09375 202.203125 C 279.257812 200.886719 278.546875 200.054688 278.328125 199.886719 L 277.148438 198.976562 L 274.519531 200.351562 L 274.53125 200.59375 C 273.957031 201.019531 273.414062 201.449219 272.894531 201.882812 C 269.328125 204.890625 267.121094 208.078125 266.304688 211.394531 C 265.457031 214.984375 266.113281 219.636719 268.242188 225.246094 C 268.242188 225.257812 268.246094 225.269531 268.253906 225.28125 C 268.265625 225.3125 268.277344 225.339844 268.289062 225.371094 C 268.519531 225.925781 269.515625 228.15625 271.03125 228.648438 L 271.035156 228.648438 C 271.078125 228.65625 271.117188 228.65625 271.164062 228.65625 C 271.371094 228.65625 271.601562 228.632812 271.847656 228.570312 C 273.050781 228.273438 275.457031 227.273438 277.78125 225.386719 C 280.109375 223.507812 282.355469 220.734375 283.222656 216.902344 C 284.464844 211.40625 282.457031 206.273438 280.640625 203.105469 Z M 278.707031 215.878906 C 277.765625 220.039062 274.515625 222.300781 272.464844 223.34375 C 270.347656 217.65625 270.371094 214.304688 270.804688 212.476562 C 271.234375 210.722656 272.570312 208.078125 276.40625 205 C 277.8125 207.375 279.664062 211.667969 278.707031 215.878906 Z M 278.707031 215.878906 " fill-opacity="1" fill-rule="nonzero"/><path fill="#754138" d="M 91.183594 178.511719 C 92.613281 177.328125 94.226562 176.539062 95.910156 176.1875 C 97.214844 175.910156 98.5625 175.886719 99.902344 176.132812 C 101.183594 176.367188 102.402344 176.769531 103.542969 177.328125 C 108.234375 179.601562 111.5 184.34375 111.570312 189.535156 L 111.570312 189.550781 C 111.601562 194.75 108.355469 199.550781 103.59375 201.882812 C 102.457031 202.449219 101.222656 202.867188 99.933594 203.117188 C 99.25 203.25 98.566406 203.3125 97.894531 203.3125 C 97.203125 203.3125 96.519531 203.242188 95.847656 203.105469 C 95.214844 202.980469 94.59375 202.792969 93.988281 202.546875 C 93.5 202.347656 93.011719 202.109375 92.542969 201.832031 C 92.023438 201.519531 91.519531 201.164062 91.035156 200.765625 C 87.960938 198.207031 86.214844 194.164062 86.25 189.667969 C 86.277344 185.144531 88.078125 181.074219 91.183594 178.511719 Z M 92.398438 195.398438 C 92.84375 196.089844 93.375 196.699219 93.988281 197.207031 C 94.765625 197.851562 95.632812 198.289062 96.542969 198.515625 C 97.359375 198.710938 98.207031 198.730469 99.054688 198.566406 C 103.503906 197.71875 106.960938 193.769531 106.941406 189.59375 C 106.921875 188.1875 106.515625 186.808594 105.828125 185.570312 C 105.046875 184.164062 103.894531 182.9375 102.507812 182.054688 C 101.472656 181.386719 100.3125 180.914062 99.074219 180.6875 C 97.351562 180.371094 95.597656 180.867188 94.132812 182.078125 C 92.085938 183.773438 90.898438 186.550781 90.878906 189.703125 C 90.859375 191.855469 91.402344 193.835938 92.398438 195.398438 Z M 92.398438 195.398438 " fill-opacity="1" fill-rule="nonzero"/><path fill="#754138" d="M 92.398438 195.398438 C 93.074219 193 94.546875 190.246094 97.457031 187.828125 C 100.5 185.371094 101.894531 183.28125 102.507812 182.054688 C 102.800781 181.46875 102.925781 181.074219 102.957031 180.9375 C 102.957031 180.960938 102.957031 180.976562 102.953125 180.996094 C 102.957031 180.972656 102.957031 180.953125 102.964844 180.929688 L 102.964844 180.914062 C 102.96875 180.90625 102.96875 180.902344 102.96875 180.894531 C 103.144531 179.734375 104.191406 178.871094 105.378906 178.933594 C 106.65625 179 107.632812 180.085938 107.570312 181.363281 C 107.566406 181.394531 107.453125 183.042969 105.828125 185.570312 C 104.78125 187.214844 103.089844 189.222656 100.390625 191.402344 C 97.214844 194.054688 96.609375 196.96875 96.542969 198.515625 C 96.519531 199.066406 96.558594 199.441406 96.578125 199.574219 C 96.652344 199.859375 96.675781 200.160156 96.632812 200.464844 L 96.398438 202.203125 L 93.988281 202.546875 C 93.5 202.347656 93.011719 202.109375 92.542969 201.832031 L 92.21875 201.097656 C 91.882812 200.339844 91.636719 198.097656 92.398438 195.398438 Z M 96.554688 199.492188 C 96.445312 199.082031 96.1875 198.683594 95.824219 198.382812 C 96.164062 198.671875 96.421875 199.058594 96.554688 199.492188 Z M 96.554688 199.492188 " fill-opacity="1" fill-rule="nonzero"/><path fill="#754138" d="M 93.480469 162.449219 L 93.488281 162.445312 C 95.394531 154.464844 102.84375 151.160156 104.664062 150.6875 C 104.671875 150.6875 104.671875 150.6875 104.675781 150.679688 C 104.734375 150.667969 104.785156 150.65625 104.832031 150.644531 L 104.851562 150.644531 C 104.914062 150.628906 104.964844 150.617188 105.023438 150.613281 C 105.574219 150.507812 105.851562 150.535156 105.921875 150.546875 C 105.933594 150.546875 105.9375 150.546875 105.9375 150.546875 C 106.429688 150.722656 106.792969 151.234375 106.96875 151.527344 C 107.039062 151.640625 107.074219 151.722656 107.074219 151.722656 C 107.546875 152.628906 108.132812 153.824219 108.480469 154.8125 C 108.523438 154.933594 108.566406 155.054688 108.601562 155.171875 C 110.25 160.183594 110.710938 164.386719 109.976562 167.726562 C 109.203125 171.066406 107.042969 174.289062 103.542969 177.328125 C 103.011719 177.800781 102.445312 178.265625 101.847656 178.722656 L 101.832031 179.078125 L 99.191406 180.226562 L 98.085938 179.304688 C 97.828125 179.085938 96.902344 177.953125 95.910156 176.1875 C 94.144531 173.039062 92.183594 167.902344 93.480469 162.449219 Z M 105.457031 166.707031 C 105.867188 164.855469 105.902344 161.546875 104.007812 156.023438 C 103.003906 156.589844 101.742188 157.457031 100.609375 158.683594 C 99.476562 159.914062 98.472656 161.507812 97.988281 163.527344 C 96.96875 167.800781 98.796875 171.945312 100.101562 174.191406 C 103.78125 171.105469 105.058594 168.449219 105.457031 166.707031 Z M 105.457031 166.707031 " fill-opacity="1" fill-rule="nonzero"/><path fill="#754138" d="M 95.847656 203.105469 C 96.03125 202.78125 96.21875 202.480469 96.398438 202.203125 C 97.230469 200.886719 97.941406 200.054688 98.160156 199.886719 L 99.34375 198.976562 L 101.96875 200.351562 L 101.957031 200.59375 C 102.53125 201.019531 103.074219 201.449219 103.59375 201.882812 C 107.160156 204.890625 109.371094 208.078125 110.1875 211.394531 C 111.03125 214.984375 110.375 219.636719 108.246094 225.246094 C 108.246094 225.257812 108.242188 225.269531 108.234375 225.28125 C 108.222656 225.3125 108.210938 225.339844 108.199219 225.371094 C 107.96875 225.925781 106.972656 228.15625 105.457031 228.648438 L 105.453125 228.648438 C 105.410156 228.65625 105.371094 228.65625 105.324219 228.65625 C 105.117188 228.65625 104.886719 228.632812 104.640625 228.570312 C 103.4375 228.273438 101.03125 227.273438 98.707031 225.386719 C 96.378906 223.507812 94.132812 220.734375 93.265625 216.902344 C 92.023438 211.40625 94.03125 206.273438 95.847656 203.105469 Z M 97.78125 215.878906 C 98.722656 220.039062 101.976562 222.300781 104.023438 223.34375 C 106.140625 217.65625 106.117188 214.304688 105.683594 212.476562 C 105.253906 210.722656 103.917969 208.078125 100.082031 205 C 98.675781 207.375 96.824219 211.667969 97.78125 215.878906 Z M 97.78125 215.878906 " fill-opacity="1" fill-rule="nonzero"/><path fill="#754138" d="M 271.8125 150.679688 C 271.75 150.667969 271.691406 150.65625 271.636719 150.644531 L 271.65625 150.644531 C 271.703125 150.65625 271.753906 150.667969 271.8125 150.679688 Z M 271.8125 150.679688 " fill-opacity="1" fill-rule="nonzero"/><g fill="#754138" fill-opacity="1"><g transform="translate(117.26192, 119.626013)"><g><path d="M -13.996094 -17.15625 L -12.070312 -18.542969 L -0.597656 -5.867188 L -2.164062 -4.089844 L 0.84375 -0.765625 L 2.589844 -2.347656 L 6.308594 -5.710938 L 8 -7.242188 L 4.988281 -10.566406 L 3.121094 -9.234375 L -0.421875 -13.148438 L 3.546875 -16.742188 L 10.273438 -15.65625 L 8.820312 -14.035156 L 11.828125 -10.710938 L 13.578125 -12.292969 L 17.292969 -15.65625 L 19.039062 -17.238281 L 16.03125 -20.5625 L 13.9375 -19.023438 L 6.589844 -20.007812 C 8.511719 -22.980469 8.300781 -26.273438 5.339844 -29.539062 C 1.464844 -33.820312 -2.753906 -33.382812 -6.695312 -29.816406 L -11.539062 -25.429688 L -12.554688 -24.511719 L -13.289062 -23.847656 L -15.257812 -22.0625 L -17.003906 -20.480469 Z M -8.890625 -22.5 L -4.71875 -26.273438 C -2.691406 -28.109375 -0.519531 -28.539062 1.621094 -26.171875 C 3.765625 -23.808594 3.070312 -21.742188 1.042969 -19.90625 L -3.125 -16.132812 Z M -8.890625 -22.5 "/></g></g></g><g fill="#754138" fill-opacity="1"><g transform="translate(137.7154, 101.578756)"><g><path d="M -8.457031 -25.457031 L -10.578125 -24.429688 L -8.621094 -20.394531 L -6.386719 -21.183594 L 1.074219 -5.796875 L -0.929688 -4.53125 L 1.027344 -0.496094 L 3.144531 -1.523438 L 5.058594 -2.453125 L 5.539062 -2.683594 L 7.660156 -3.710938 L 15.179688 -7.359375 L 19.691406 -9.546875 L 17.96875 -13.101562 L 16.941406 -15.222656 L 13.316406 -13.464844 L 14.003906 -11.179688 L 5.933594 -7.269531 L 2.71875 -13.902344 L 7.402344 -16.171875 L 8.472656 -14.578125 L 10.660156 -15.640625 L 9.832031 -17.347656 L 8.105469 -20.902344 L 7.277344 -22.613281 L 5.089844 -21.554688 L 5.679688 -19.726562 L 0.996094 -17.457031 L -2.253906 -24.15625 L 5.816406 -28.070312 L 7.183594 -26.117188 L 10.808594 -27.871094 L 9.78125 -29.992188 L 8.089844 -33.480469 L 3.578125 -31.292969 L -3.945312 -27.644531 L -6.0625 -26.617188 L -6.542969 -26.386719 Z M -8.457031 -25.457031 "/></g></g></g><g fill="#754138" fill-opacity="1"><g transform="translate(159.752519, 90.742764)"><g><path d="M 4.300781 -22.867188 L 6.515625 -23.457031 L 5.796875 -27.882812 L 3.472656 -27.507812 L -1.628906 -26.679688 L -3.878906 -26.316406 L -3.160156 -21.890625 L -0.792969 -22.003906 L 9.976562 -1.617188 L 12.152344 -1.96875 L 15.078125 -2.441406 L 17.253906 -2.796875 L 20.960938 -25.527344 L 23.316406 -26.179688 L 22.601562 -30.605469 L 20.273438 -30.230469 L 15.175781 -29.402344 L 12.921875 -29.039062 L 13.640625 -24.613281 L 15.851562 -24.738281 L 12.914062 -7.25 L 13.164062 -4.75 L 12.613281 -7.203125 Z M 4.300781 -22.867188 "/></g></g></g><g fill="#754138" fill-opacity="1"><g transform="translate(187.955407, 86.617886)"><g><path d="M 6.917969 -25.917969 L 4.582031 -26.222656 L 4 -21.777344 L 6.300781 -21.207031 L 4.082031 -4.253906 L 1.710938 -4.296875 L 1.128906 0.148438 L 3.464844 0.453125 L 5.574219 0.730469 L 6.101562 0.796875 L 8.4375 1.105469 L 16.726562 2.1875 L 21.699219 2.839844 L 22.210938 -1.078125 L 22.519531 -3.414062 L 18.523438 -3.9375 L 17.84375 -1.648438 L 8.953125 -2.8125 L 9.90625 -10.121094 L 15.070312 -9.445312 L 15.085938 -7.527344 L 17.496094 -7.214844 L 17.746094 -9.097656 L 18.257812 -13.015625 L 18.503906 -14.898438 L 16.09375 -15.214844 L 15.582031 -13.363281 L 10.421875 -14.039062 L 11.386719 -21.425781 L 20.277344 -20.261719 L 20.347656 -17.875 L 24.34375 -17.351562 L 24.648438 -19.6875 L 25.152344 -23.53125 L 20.179688 -24.183594 L 11.890625 -25.265625 L 9.554688 -25.574219 L 9.027344 -25.640625 Z M 6.917969 -25.917969 "/></g></g></g><g fill="#754138" fill-opacity="1"><g transform="translate(212.363284, 89.831945)"><g><path d="M 26.734375 -12.476562 L 26.03125 -9.714844 L 29.582031 -8.167969 L 30.707031 -10.746094 L 32.496094 -14.859375 L 27.898438 -16.859375 L 22.671875 -19.136719 C 17.238281 -21.503906 10.613281 -19.996094 6.910156 -11.496094 C 3.210938 -2.996094 6.617188 2.882812 12.054688 5.25 L 21.875 9.527344 L 23.667969 5.417969 L 15.238281 1.746094 C 11.265625 0.015625 9.113281 -3.988281 11.511719 -9.492188 C 13.9375 -15.066406 18.09375 -16.238281 22.066406 -14.507812 Z M 26.734375 -12.476562 "/></g></g></g><g fill="#754138" fill-opacity="1"><g transform="translate(236.615366, 100.223278)"><g><path d="M 28.816406 -10.601562 C 22.761719 -15.914062 15.699219 -15.238281 10.085938 -8.84375 C 4.472656 -2.445312 4.71875 4.644531 10.773438 9.960938 C 16.828125 15.273438 23.945312 14.648438 29.5625 8.25 C 35.175781 1.855469 34.871094 -5.289062 28.816406 -10.601562 Z M 25.859375 -7.230469 C 29.34375 -4.175781 29.128906 -0.015625 25.21875 4.441406 C 21.3125 8.894531 17.214844 9.648438 13.730469 6.589844 C 10.246094 3.53125 10.515625 -0.578125 14.425781 -5.03125 C 18.335938 -9.488281 22.375 -10.289062 25.859375 -7.230469 Z M 25.859375 -7.230469 "/></g></g></g><g fill="#754138" fill-opacity="1"><g transform="translate(88.974333, 268.541997)"><g><path d="M 24.003906 -1.761719 L 22.667969 0.136719 L 24.925781 2.347656 L 26.53125 0.707031 L 29.089844 -1.90625 L 26.164062 -4.765625 L 22.835938 -8.015625 C 19.378906 -11.398438 13.890625 -12.167969 8.605469 -6.761719 C 3.316406 -1.351562 4.210938 4.117188 7.667969 7.496094 L 13.917969 13.609375 L 16.476562 10.992188 L 11.113281 5.75 C 8.585938 3.277344 8.105469 -0.398438 11.53125 -3.902344 C 14.996094 -7.445312 18.507812 -7.136719 21.035156 -4.664062 Z M 24.003906 -1.761719 "/></g></g></g><g fill="#754138" fill-opacity="1"><g transform="translate(108.856451, 287.157106)"><g><path d="M 22.265625 -11.6875 L 20.160156 -13 L 18.6875 -13.917969 L 4.15625 -1.976562 L 2.410156 -2.808594 L 0.472656 0.296875 L 2.050781 1.277344 L 5.628906 3.511719 L 7.207031 4.492188 L 9.140625 1.390625 L 7.714844 0.28125 L 10.855469 -2.292969 L 16.746094 1.382812 L 15.816406 5.332031 L 14.191406 4.539062 L 12.257812 7.644531 L 13.835938 8.625 L 17.414062 10.855469 L 18.992188 11.839844 L 20.925781 8.738281 L 19.410156 7.535156 L 23.683594 -10.800781 Z M 20.164062 -10.660156 L 19.152344 -8.804688 L 17.53125 -1.925781 L 13.480469 -4.453125 L 18.941406 -8.9375 Z M 20.164062 -10.660156 "/></g></g></g><g fill="#754138" fill-opacity="1"><g transform="translate(134.050999, 301.816167)"><g><path d="M 7.085938 -16.617188 L 8.8125 -15.753906 L 4.011719 -2.65625 L 2.132812 -3.113281 L 0.875 0.320312 L 2.675781 0.980469 L 6.519531 2.390625 L 8.324219 3.050781 L 9.582031 -0.382812 L 7.851562 -1.246094 L 9.335938 -5.292969 L 13.207031 -3.875 L 12.855469 -2.285156 L 15.242188 -1.410156 L 15.796875 -2.921875 L 16.886719 -5.890625 L 17.417969 -7.347656 L 15.03125 -8.222656 L 14.296875 -6.839844 L 10.425781 -8.261719 L 12.902344 -15.011719 L 19.769531 -12.496094 L 19.398438 -10.582031 L 22.484375 -9.453125 L 23.144531 -11.257812 L 24.234375 -14.226562 L 20.390625 -15.632812 L 13.988281 -17.980469 L 12.183594 -18.644531 L 11.835938 -18.769531 L 10.148438 -19.390625 L 8.34375 -20.050781 Z M 7.085938 -16.617188 "/></g></g></g><g fill="#754138" fill-opacity="1"><g transform="translate(157.176327, 309.711931)"><g><path d="M 6.28125 -20.964844 L 4.386719 -21.269531 L 3.800781 -17.660156 L 5.664062 -17.140625 L 3.433594 -3.367188 L 1.503906 -3.460938 L 0.917969 0.148438 L 2.816406 0.457031 L 4.527344 0.734375 L 4.957031 0.800781 L 6.855469 1.109375 L 13.585938 2.199219 L 17.625 2.851562 L 18.140625 -0.328125 L 18.449219 -2.226562 L 15.203125 -2.75 L 14.589844 -0.902344 L 7.371094 -2.074219 L 8.332031 -8.007812 L 12.523438 -7.332031 L 12.488281 -5.765625 L 14.449219 -5.449219 L 14.695312 -6.976562 L 15.210938 -10.160156 L 15.457031 -11.691406 L 13.5 -12.007812 L 13.039062 -10.511719 L 8.84375 -11.191406 L 9.816406 -17.1875 L 17.039062 -16.019531 L 17.035156 -14.074219 L 20.28125 -13.546875 L 20.585938 -15.445312 L 21.09375 -18.566406 L 17.054688 -19.21875 L 10.320312 -20.308594 L 8.425781 -20.617188 L 7.996094 -20.6875 Z M 6.28125 -20.964844 "/></g></g></g><g fill="#754138" fill-opacity="1"><g transform="translate(182.325378, 313.154821)"><g><path d="M 2.820312 -16.097656 L 3.375 -18.160156 L 6.78125 -18.273438 L 7.246094 -4.113281 L 5.394531 -3.835938 L 5.515625 -0.179688 L 7.375 -0.242188 L 11.464844 -0.375 L 13.320312 -0.4375 L 13.203125 -4.09375 L 11.335938 -4.25 L 10.871094 -18.40625 L 14.21875 -18.515625 L 14.90625 -16.492188 L 17.753906 -16.585938 L 17.6875 -18.628906 L 17.566406 -22.285156 L 12.984375 -22.136719 L 10.753906 -22.0625 L 6.664062 -21.929688 L 4.371094 -21.851562 L -0.152344 -21.703125 L -0.0351562 -18.050781 L 0.0351562 -16.003906 Z M 2.820312 -16.097656 "/></g></g></g><g fill="#754138" fill-opacity="1"><g transform="translate(207.300359, 311.751054)"><g><path d="M -2.082031 -21.785156 L -3.957031 -21.355469 L -3.136719 -17.789062 L -1.214844 -18.007812 L 1.910156 -4.414062 L 0.0859375 -3.773438 L 0.90625 -0.207031 L 2.777344 -0.640625 L 4.472656 -1.027344 L 4.894531 -1.125 L 6.765625 -1.554688 L 13.414062 -3.085938 L 17.398438 -4 L 16.679688 -7.144531 L 16.246094 -9.015625 L 13.046875 -8.28125 L 13.171875 -6.335938 L 6.042969 -4.699219 L 4.695312 -10.558594 L 8.835938 -11.511719 L 9.394531 -10.046875 L 11.328125 -10.492188 L 10.980469 -12.003906 L 10.257812 -15.144531 L 9.910156 -16.65625 L 7.976562 -16.210938 L 8.113281 -14.652344 L 3.972656 -13.699219 L 2.613281 -19.621094 L 9.742188 -21.261719 L 10.472656 -19.457031 L 13.675781 -20.195312 L 13.246094 -22.066406 L 12.539062 -25.148438 L 8.550781 -24.230469 L 1.902344 -22.703125 L 0.03125 -22.273438 L -0.390625 -22.175781 Z M -2.082031 -21.785156 "/></g></g></g><g fill="#754138" fill-opacity="1"><g transform="translate(232.026259, 305.518281)"><g><path d="M -6.675781 -16.785156 L -4.839844 -17.390625 L 0.976562 -4.710938 L -0.679688 -3.710938 L 0.84375 -0.386719 L 2.59375 -1.1875 L 6.3125 -2.894531 L 8 -3.671875 L 6.476562 -6.996094 L 4.695312 -6.417969 L 2.898438 -10.332031 L 6.871094 -12.15625 L 11.835938 -9.660156 L 10.308594 -8.753906 L 11.832031 -5.429688 L 13.582031 -6.230469 L 17.300781 -7.933594 L 19.046875 -8.738281 L 17.519531 -12.0625 L 15.515625 -11.378906 L 10.039062 -13.949219 C 12.265625 -15.789062 12.90625 -18.402344 11.410156 -21.671875 C 9.445312 -25.953125 6.054688 -26.648438 2.109375 -24.839844 L -2.734375 -22.617188 L -3.75 -22.152344 L -4.480469 -21.816406 L -6.453125 -20.910156 L -8.203125 -20.109375 Z M -1.390625 -19.6875 L 2.777344 -21.601562 C 4.808594 -22.53125 6.605469 -22.332031 7.6875 -19.964844 C 8.773438 -17.597656 7.726562 -16.164062 5.699219 -15.230469 L 1.53125 -13.320312 Z M -1.390625 -19.6875 "/></g></g></g><g fill="#754138" fill-opacity="1"><g transform="translate(256.433112, 293.253661)"><g><path d="M -7.363281 -30.574219 L -10.957031 -28.140625 L -10.878906 -21.605469 L -7.953125 -23.585938 Z M -9.339844 -15.460938 L -7.628906 -16.359375 L 0.191406 -4.808594 L -1.28125 -3.550781 L 0.769531 -0.519531 L 2.363281 -1.597656 L 5.75 -3.890625 L 7.34375 -4.96875 L 5.292969 -7.996094 L 3.578125 -7.101562 L -4.238281 -18.652344 L -2.769531 -19.910156 L -4.820312 -22.9375 L -6.410156 -21.863281 L -9.796875 -19.570312 L -11.390625 -18.492188 Z M -9.339844 -15.460938 "/></g></g></g><g fill="#754138" fill-opacity="1"><g transform="translate(269.480604, 284.476312)"><g><path d="M -5.875 -24.449219 L -7.664062 -22.730469 L -8.914062 -21.527344 L -0.898438 -4.511719 L -2.132812 -3.023438 L 0.402344 -0.386719 L 1.742188 -1.675781 L 4.78125 -4.597656 L 6.121094 -5.886719 L 3.589844 -8.523438 L 2.164062 -7.410156 L 0.4375 -11.085938 L 5.445312 -15.894531 L 9.046875 -14.027344 L 7.878906 -12.648438 L 10.414062 -10.011719 L 11.753906 -11.300781 L 14.792969 -14.222656 L 16.132812 -15.511719 L 13.597656 -18.148438 L 12.0625 -16.972656 L -4.667969 -25.609375 Z M -5.394531 -22.160156 L -3.84375 -20.726562 L 2.425781 -17.46875 L -1.015625 -14.160156 L -4.023438 -20.554688 Z M -5.394531 -22.160156 "/></g></g></g></svg>